<svg width="256" height="256" viewBox="0 0 256 256" fill="none" xmlns="http://www.w3.org/2000/svg">
<rect width="256" height="256" rx="42" fill="white"/>
<path d="M35 76.3438C35 66.7686 42.7686 59 52.3438 59H92.8125H121.719H138.521C151.817 59 164.247 65.5039 171.799 76.416L212.81 135.674C217.507 142.431 220 150.488 220 158.727V163.062V168.844V186.188C220 192.583 214.833 197.75 208.438 197.75H173.75C167.354 197.75 162.188 192.583 162.188 186.188V181.201L133.968 163.062H121.719H92.8125H75.4688C65.8936 163.062 58.125 155.294 58.125 145.719C58.125 136.144 65.8936 128.375 75.4688 128.375H92.8125H121.719C131.294 128.375 139.062 120.606 139.062 111.031C139.062 101.456 131.294 93.6875 121.719 93.6875H92.8125H52.3438C42.7686 93.6875 35 85.9189 35 76.3438Z" fill="#74C0FC"/>
</svg>
