<svg width="100" height="100" viewBox="0 0 100 100" fill="none" xmlns="http://www.w3.org/2000/svg">
<g filter="url(#filter0_d_27_66)">
<path d="M78.6558 64.1359V28.9558C78.6558 25.48 75.8397 22.6594 72.3631 22.6594C71.0851 22.6603 69.9088 23.0545 68.9179 23.7061V19.7038C68.9179 16.2262 66.0981 13.4092 62.6214 13.4074C61.2471 13.4083 59.9773 13.8529 58.9423 14.6017C58.2025 11.9476 55.7733 10 52.8852 10C49.4103 10.0009 46.5934 12.8179 46.5915 16.2973V17.3782C45.5998 16.7257 44.4244 16.3324 43.1491 16.3306C39.6715 16.3324 36.8536 19.1485 36.8518 22.6261V42.4387C36.0436 41.2948 34.6242 40.3813 32.8549 40.4047C31.7883 40.4065 30.6283 40.6945 29.3377 41.2822C28.9066 41.4784 28.6168 41.8915 28.579 42.3649C28.579 42.3649 28.5754 42.4099 28.5538 42.5665C28.4008 43.6591 27.4414 48.9313 22.2772 55.5418C22.0738 55.801 21.9775 56.125 22.0045 56.4535C22.0117 56.5102 22.675 64.6084 25.3525 72.8191C26.6971 76.9267 28.5349 81.0721 31.1458 84.2842C33.7305 87.4792 37.2262 89.785 41.6038 89.785H41.6299C41.7145 89.7832 41.7595 89.7832 41.7721 89.7832L64.2055 89.785C72.1876 89.7832 78.6577 83.3149 78.6577 75.3355V64.153C78.6577 64.1467 78.6595 64.1413 78.6595 64.1359H78.6558ZM36.8509 53.4655V61.5502L35.7979 61.2379C35.689 61.129 35.3875 60.7501 35.3668 59.4811C35.3632 58.3012 35.698 56.3743 36.8509 53.4655ZM64.2055 87.1768C64.2055 87.1768 41.6641 87.1786 41.6308 87.1786C38.1892 87.166 35.4865 85.4578 33.1699 82.6363C29.7175 78.4171 27.5053 71.7751 26.2435 66.2221C25.6072 63.4429 25.1977 60.9373 24.9457 59.1292C24.7945 58.0447 24.7027 57.2203 24.6523 56.7334C29.4124 50.4946 30.7219 45.325 31.0647 43.3882C31.8009 43.1146 32.3959 43.0138 32.8549 43.0156C33.8233 43.0381 34.2769 43.3666 34.7701 44.0146C35.6836 45.2314 35.9184 47.7541 35.8932 48.8701C35.8932 49.0042 35.8914 49.1167 35.8897 49.204C33.5092 54.1315 32.7667 57.3004 32.7595 59.482C32.6947 62.3872 34.3516 63.5554 34.7503 63.6427L37.786 64.5508C37.9885 64.6102 38.8525 64.6723 38.8525 64.6723C38.8525 64.6723 39.316 64.6849 40.1215 64.7974C42.5938 65.1223 47.5888 66.4462 49.3888 70.4854C49.6084 70.9624 50.0818 71.245 50.5732 71.245C50.7568 71.245 50.9413 71.2063 51.1177 71.1226C51.772 70.822 52.0581 70.048 51.7567 69.3937C50.07 65.7577 46.776 63.9514 44.0464 63.0415C42.0537 62.3818 40.306 62.1667 39.4609 62.0983V22.6261C39.4645 20.5894 41.1124 18.9433 43.1482 18.9397C44.7196 18.9361 46.0614 19.9261 46.5915 21.3139C46.5915 21.3139 46.5907 49.9942 46.5907 50.0068C46.588 50.7286 47.1667 51.3145 47.8867 51.3181C48.6067 51.3226 49.1953 50.7412 49.1989 50.0203V16.2973C49.2025 14.2588 50.8504 12.6127 52.8843 12.6091C54.921 12.6127 56.568 14.2588 56.5716 16.2973V51.9616C56.5716 52.6807 57.1558 53.2657 57.8757 53.2657C58.5966 53.2657 59.1808 52.6807 59.1808 51.9616H59.1789V18.3916C59.7099 17.0029 61.0473 16.0147 62.6205 16.0165C64.6581 16.0201 66.3051 17.668 66.3087 19.7038V53.3224C66.3087 54.0415 66.892 54.6274 67.6129 54.6274C68.3337 54.6274 68.9188 54.0415 68.9188 53.3224H68.917V27.64C69.4498 26.254 70.7889 25.2667 72.3622 25.2685C74.398 25.2721 76.0432 26.9191 76.0468 28.9558V64.1395V75.3355C76.0351 81.874 70.7457 87.1642 64.2055 87.1768Z" fill="#045B9A"/>
</g>
<defs>
<filter id="filter0_d_27_66" x="18.3" y="10" width="64.0595" height="87.485" filterUnits="userSpaceOnUse" color-interpolation-filters="sRGB">
<feFlood flood-opacity="0" result="BackgroundImageFix"/>
<feColorMatrix in="SourceAlpha" type="matrix" values="0 0 0 0 0 0 0 0 0 0 0 0 0 0 0 0 0 0 127 0" result="hardAlpha"/>
<feOffset dy="4"/>
<feGaussianBlur stdDeviation="1.85"/>
<feComposite in2="hardAlpha" operator="out"/>
<feColorMatrix type="matrix" values="0 0 0 0 0.0156863 0 0 0 0 0.294118 0 0 0 0 0.498039 0 0 0 0.26 0"/>
<feBlend mode="normal" in2="BackgroundImageFix" result="effect1_dropShadow_27_66"/>
<feBlend mode="normal" in="SourceGraphic" in2="effect1_dropShadow_27_66" result="shape"/>
</filter>
</defs>
</svg>
