<svg width="100" height="100" viewBox="0 0 100 100" fill="none" xmlns="http://www.w3.org/2000/svg">
<g filter="url(#filter0_d_27_62)">
<path d="M78.82 28.651C78.818 24.785 75.6869 21.653 71.8239 21.653C70.3769 21.654 69.045 22.107 67.93 22.858C67.478 19.432 64.5529 16.787 61.0019 16.785C59.4729 16.786 58.0639 17.281 56.9119 18.113C56.09 15.165 53.3909 13 50.181 13C46.841 13.002 44.052 15.34 43.356 18.477C43.296 18.836 43.326 18.758 43.312 18.919C43.301 19.291 43.2929 20.116 43.2889 21.259C42.1679 20.494 40.822 20.033 39.361 20.032C36.019 20.036 33.232 22.375 32.537 25.508L32.503 25.821V30.115C31.609 28.843 30.033 27.818 28.06 27.844C26.875 27.847 25.5859 28.166 24.153 28.818C23.674 29.038 23.3509 29.496 23.3089 30.021C23.3089 30.021 23.307 30.073 23.2829 30.247C23.1119 31.46 22.044 37.321 16.308 44.666C16.082 44.954 15.975 45.314 16.005 45.678C16.013 45.741 16.751 54.671 19.7269 63.727C21.221 68.259 23.2649 72.832 26.165 76.376C29.042 79.91 32.936 82.452 37.81 82.443C37.904 82.441 37.954 82.441 37.97 82.441L38.347 82.445C39.288 82.619 40.259 82.714 41.253 82.712L62.8979 82.713C71.764 82.711 78.953 75.524 78.953 66.654L78.82 28.651ZM68 27.215C68.584 25.664 70.0679 24.551 71.8239 24.551V24.553C74.0859 24.557 75.9159 26.387 75.9199 28.652V38.119C75.9199 38.375 75.893 38.631 75.846 38.89V38.892C75.485 40.779 73.8219 42.215 71.8249 42.212C70.6669 42.213 69.6259 41.73 68.882 40.956C68.556 40.617 68.2939 40.22 68.0989 39.785C68.0649 39.707 68.0319 39.629 68.0009 39.548C67.9799 39.491 67.9479 39.437 67.931 39.378V39.376C67.798 38.972 67.7289 38.554 67.7269 38.118L67.729 28.651C67.727 28.392 67.757 28.125 67.806 27.856C67.8349 27.704 67.8779 27.549 67.931 27.385C67.9469 27.327 67.979 27.274 68 27.215ZM60.9939 19.684H61.0039C63.2659 19.688 65.0979 21.52 65.1019 23.782V42.446C65.0979 43.86 64.3829 45.104 63.2929 45.842C62.6409 46.282 61.8519 46.541 61.0039 46.543C59.6209 46.545 58.4 45.855 57.658 44.802C57.447 44.5 57.277 44.166 57.152 43.812C57.137 43.775 57.1189 43.74 57.1049 43.701C56.978 43.305 56.9079 42.885 56.9059 42.449L56.908 23.784C56.908 23.343 56.9779 22.924 57.1069 22.519C57.1229 22.476 57.144 22.435 57.16 22.392C57.729 20.82 59.227 19.684 60.9939 19.684ZM46.203 19.39C46.207 19.223 46.209 19.092 46.211 19.008V19.003C46.656 17.221 48.2669 15.895 50.1829 15.897C52.444 15.9 54.2739 17.729 54.2799 19.988C54.2799 20.051 54.2329 43.24 54.2449 43.598C54.249 43.776 54.255 43.922 54.263 44.046C54.271 44.099 54.2729 44.131 54.2749 44.164C54.2729 44.189 54.2669 44.214 54.2649 44.24C54.257 44.408 54.236 44.572 54.208 44.736C54.1959 44.812 54.1919 44.892 54.1749 44.967C54.1339 45.154 54.0709 45.329 54.0029 45.505C53.9759 45.576 53.958 45.651 53.929 45.722C53.8549 45.888 53.761 46.04 53.665 46.195C53.624 46.263 53.5909 46.339 53.5459 46.404C53.4479 46.545 53.3329 46.67 53.2199 46.796C53.1589 46.861 53.1089 46.936 53.0439 46.998C52.9289 47.109 52.7979 47.204 52.6709 47.303C52.5929 47.364 52.5229 47.432 52.4419 47.487C52.3109 47.573 52.1689 47.638 52.028 47.71C51.9329 47.758 51.847 47.814 51.7529 47.856C51.6029 47.919 51.4389 47.957 51.2789 48.002C51.1829 48.028 51.0919 48.067 50.9949 48.088C50.7509 48.137 50.4969 48.16 50.2389 48.164C50.2199 48.164 50.2039 48.169 50.1839 48.169C50.0319 48.168 49.8859 48.14 49.7389 48.122C47.7239 47.895 46.239 46.226 46.223 44.073C46.221 44.046 46.199 19.726 46.203 19.39ZM35.402 25.996C35.861 24.236 37.459 22.927 39.363 22.931C41.11 22.929 42.597 24.026 43.189 25.565V41.171C43.158 41.253 43.125 41.334 43.0879 41.414C43.049 41.501 43.011 41.588 42.966 41.672C42.914 41.772 42.853 41.863 42.793 41.956C42.739 42.038 42.6889 42.122 42.629 42.199C42.565 42.286 42.4919 42.365 42.4209 42.445C42.3549 42.519 42.292 42.596 42.221 42.667C42.144 42.742 42.06 42.809 41.978 42.879C41.902 42.942 41.829 43.009 41.748 43.067C41.659 43.13 41.563 43.184 41.469 43.241C41.386 43.293 41.305 43.346 41.218 43.391C41.116 43.444 41.007 43.485 40.899 43.528C40.813 43.563 40.729 43.604 40.639 43.632C40.515 43.674 40.385 43.699 40.256 43.729C40.177 43.747 40.1 43.772 40.019 43.786C39.817 43.819 39.609 43.834 39.398 43.836C39.387 43.836 39.3759 43.839 39.365 43.839C39.1229 43.839 38.886 43.818 38.657 43.776C38.587 43.764 38.522 43.739 38.453 43.723C38.296 43.688 38.14 43.653 37.99 43.599C37.904 43.569 37.823 43.524 37.739 43.489C37.616 43.433 37.49 43.385 37.374 43.319C37.284 43.268 37.204 43.206 37.118 43.149C37.017 43.083 36.912 43.02 36.818 42.944C36.734 42.877 36.659 42.798 36.58 42.722C36.497 42.645 36.41 42.569 36.332 42.485C36.257 42.401 36.194 42.309 36.126 42.221C36.058 42.132 35.986 42.046 35.925 41.95C35.864 41.853 35.815 41.753 35.762 41.652C35.71 41.552 35.654 41.457 35.608 41.353C35.564 41.249 35.531 41.137 35.495 41.029C35.463 40.933 35.429 40.839 35.404 40.74V25.996H35.402ZM32.504 42.356V51.339L31.335 50.993C31.213 50.872 30.8779 50.447 30.8569 49.039C30.851 47.729 31.223 45.588 32.504 42.356ZM76.055 66.654C76.0429 73.922 70.1619 79.801 62.8979 79.813H41.256C40.406 79.813 39.576 79.733 38.769 79.575L38.512 79.551L38.031 79.545C37.998 79.543 37.968 79.543 37.94 79.543C37.885 79.543 37.841 79.545 37.815 79.545C33.985 79.535 30.982 77.649 28.411 74.537C24.576 69.888 22.1189 62.565 20.7189 56.442C20.0129 53.381 19.5559 50.616 19.2769 48.628C19.1099 47.434 19.007 46.524 18.952 45.989C24.24 39.054 25.6959 33.309 26.077 31.157C26.895 30.854 27.556 30.741 28.0649 30.741C29.1419 30.769 29.6449 31.135 30.193 31.854C31.208 33.205 31.471 36.01 31.442 37.251C31.442 37.401 31.441 37.524 31.438 37.623C28.793 43.095 27.967 46.617 27.959 49.038C27.887 52.267 29.7299 53.566 30.1729 53.663L33.546 54.669C33.76 54.732 36.716 54.803 39.015 55.523C41.637 56.342 44.402 57.902 45.761 60.861C46.004 61.388 46.53 61.703 47.076 61.703C47.28 61.703 47.485 61.66 47.681 61.568C48.408 61.232 48.7239 60.374 48.3899 59.646C46.5319 55.633 42.898 53.695 39.876 52.755C38.089 52.2 36.474 51.97 35.404 51.874V45.503C35.5 45.568 35.606 45.618 35.705 45.68C35.83 45.758 35.956 45.833 36.087 45.903C36.289 46.011 36.5 46.104 36.713 46.192C36.844 46.248 36.972 46.304 37.106 46.35C37.351 46.433 37.605 46.496 37.861 46.551C37.974 46.576 38.084 46.612 38.2 46.631C38.579 46.694 38.966 46.733 39.363 46.735C39.389 46.735 39.416 46.729 39.443 46.729C39.795 46.724 40.142 46.698 40.48 46.643C40.594 46.624 40.702 46.588 40.814 46.565C41.059 46.512 41.3039 46.461 41.5389 46.384C41.6679 46.342 41.788 46.281 41.9139 46.233C42.122 46.153 42.33 46.073 42.527 45.972C42.656 45.907 42.776 45.826 42.901 45.752C43.047 45.665 43.1989 45.591 43.3379 45.495C43.9009 48.204 46.033 50.335 48.741 50.906C48.759 50.91 48.7769 50.914 48.7949 50.917C48.9939 50.959 49.1969 50.988 49.403 51.013C49.43 51.016 49.459 51.022 49.4869 51.026C49.716 51.047 49.9489 51.063 50.1849 51.063C50.2049 51.063 50.222 51.058 50.242 51.058C50.511 51.055 50.7729 51.037 51.034 51.004C51.125 50.993 51.2129 50.979 51.3029 50.963C51.5029 50.931 51.701 50.89 51.895 50.841C51.977 50.82 52.0589 50.803 52.139 50.778C52.401 50.704 52.6579 50.616 52.9059 50.51C52.938 50.497 52.967 50.481 52.998 50.467C53.221 50.369 53.4339 50.26 53.6429 50.141C53.7109 50.102 53.781 50.061 53.846 50.02C54.0289 49.909 54.201 49.79 54.3709 49.663C54.4219 49.625 54.4729 49.589 54.5219 49.551C54.7379 49.38 54.9419 49.198 55.1349 49.005C55.1579 48.984 55.1759 48.96 55.1979 48.939C55.3679 48.764 55.528 48.58 55.679 48.386C55.72 48.334 55.7589 48.282 55.798 48.228C55.9389 48.04 56.0689 47.843 56.1909 47.64C56.2079 47.615 56.226 47.591 56.243 47.564C56.423 47.732 56.6119 47.886 56.806 48.036C56.847 48.064 56.888 48.092 56.929 48.121C57.183 48.305 57.4499 48.474 57.7259 48.62C57.7469 48.631 57.7629 48.642 57.7819 48.652C58.0709 48.802 58.374 48.926 58.681 49.037C58.7389 49.058 58.794 49.078 58.853 49.097C59.157 49.196 59.47 49.276 59.791 49.331C59.853 49.341 59.9139 49.348 59.9759 49.357C60.3029 49.406 60.637 49.437 60.9799 49.439C60.9879 49.439 60.998 49.441 61.006 49.441C61.0569 49.441 61.1049 49.434 61.152 49.433C61.326 49.429 61.5 49.422 61.6699 49.408C61.7619 49.398 61.8529 49.384 61.9419 49.371C62.0699 49.353 62.1989 49.338 62.3239 49.312C62.4199 49.293 62.514 49.271 62.611 49.249C62.7249 49.222 62.8419 49.193 62.959 49.16C63.055 49.132 63.1469 49.1 63.2399 49.07C63.3519 49.033 63.4629 48.992 63.5739 48.949C63.6639 48.913 63.7519 48.876 63.84 48.838C63.951 48.788 64.06 48.734 64.166 48.681C64.248 48.64 64.3319 48.598 64.4119 48.553C64.5239 48.49 64.6349 48.421 64.7439 48.352C64.811 48.308 64.8849 48.267 64.951 48.221C65.108 48.114 65.264 47.997 65.4119 47.876C65.459 47.838 65.5039 47.797 65.5509 47.758C65.674 47.651 65.7969 47.541 65.9139 47.426C65.9729 47.369 66.027 47.306 66.084 47.245C66.172 47.152 66.2599 47.059 66.3419 46.963C66.402 46.894 66.457 46.82 66.514 46.749C66.5859 46.654 66.66 46.56 66.7299 46.462C66.783 46.385 66.834 46.306 66.8849 46.227C66.9489 46.126 67.0119 46.028 67.0719 45.924C67.1189 45.842 67.166 45.759 67.209 45.675C67.2659 45.569 67.316 45.459 67.367 45.348C67.406 45.265 67.445 45.181 67.4799 45.095C67.5289 44.973 67.574 44.848 67.617 44.723C67.6409 44.645 67.674 44.569 67.6969 44.489C67.7599 44.289 67.812 44.085 67.8549 43.877C67.9959 43.974 68.1499 44.049 68.2949 44.136C68.4179 44.208 68.5369 44.287 68.6639 44.353C68.8579 44.453 69.0649 44.531 69.2719 44.613C69.3989 44.663 69.52 44.721 69.652 44.765C69.881 44.84 70.125 44.89 70.367 44.943C70.4809 44.966 70.5939 45.006 70.7109 45.023C71.0739 45.082 71.4449 45.115 71.8259 45.115C72.2029 45.115 72.57 45.08 72.93 45.021C72.9609 45.018 72.9919 45.015 73.0209 45.01C73.3649 44.95 73.6969 44.863 74.0189 44.756C74.0619 44.741 74.1049 44.732 74.1459 44.715C74.4589 44.607 74.7579 44.472 75.0489 44.321C75.0939 44.297 75.139 44.274 75.1819 44.251C75.4669 44.095 75.74 43.919 75.998 43.727C76.016 43.713 76.0389 43.703 76.0569 43.688V66.658H76.055V66.654Z" fill="#AA4465"/>
</g>
<defs>
<filter id="filter0_d_27_62" x="12.3" y="13" width="70.353" height="77.413" filterUnits="userSpaceOnUse" color-interpolation-filters="sRGB">
<feFlood flood-opacity="0" result="BackgroundImageFix"/>
<feColorMatrix in="SourceAlpha" type="matrix" values="0 0 0 0 0 0 0 0 0 0 0 0 0 0 0 0 0 0 127 0" result="hardAlpha"/>
<feOffset dy="4"/>
<feGaussianBlur stdDeviation="1.85"/>
<feComposite in2="hardAlpha" operator="out"/>
<feColorMatrix type="matrix" values="0 0 0 0 0.666667 0 0 0 0 0.266667 0 0 0 0 0.396078 0 0 0 0.24 0"/>
<feBlend mode="normal" in2="BackgroundImageFix" result="effect1_dropShadow_27_62"/>
<feBlend mode="normal" in="SourceGraphic" in2="effect1_dropShadow_27_62" result="shape"/>
</filter>
</defs>
</svg>
