<svg width="100" height="100" viewBox="0 0 100 100" fill="none" xmlns="http://www.w3.org/2000/svg">
<g filter="url(#filter0_d_27_70)">
<path d="M73.4657 42.8302C73.1687 42.7888 72.8744 42.7663 72.581 42.7663C71.609 42.7672 70.6793 42.9994 69.8441 43.4062C69.8441 43.3909 69.8477 43.3747 69.8477 43.3594C69.8477 40.2661 67.5734 37.5769 64.4288 37.1323C64.1354 37.0918 63.8429 37.0711 63.5477 37.0711C62.5424 37.072 61.5875 37.3222 60.7316 37.7533L63.4154 17.1595C63.4559 16.8742 63.4739 16.5781 63.4739 16.2892C63.4739 13.195 61.1996 10.5076 58.055 10.0621C57.7625 10.0216 57.4691 10 57.1757 10C54.0815 10 51.3878 12.2716 50.9477 15.4252L46.4477 45.3493L38.615 16.6501C37.8617 13.8403 35.3201 11.9845 32.5355 11.9845C31.9973 11.9845 31.4483 12.0538 30.902 12.2005C28.094 12.9583 26.2382 15.4963 26.24 18.2791C26.24 18.8182 26.3102 19.3672 26.4569 19.9135L31.7183 41.7313C31.1837 41.8249 30.6257 41.9797 30.0389 42.2047C29.8067 42.2929 29.5754 42.3811 29.3351 42.4909C28.904 42.6889 28.6142 43.1002 28.5764 43.5736C28.5764 43.5736 28.5728 43.6204 28.5512 43.7779C28.3982 44.8687 27.437 50.1418 22.2737 56.7523V56.7541C22.1783 56.8765 22.109 57.016 22.0631 57.1609C22.0604 57.1717 22.0541 57.1807 22.0496 57.1924C22.0091 57.3337 21.9947 57.4813 22.0037 57.6325C22.0037 57.6442 21.9992 57.6523 22.0001 57.6631C22.0073 57.7198 22.6706 65.818 25.349 74.0287C26.6936 78.1372 28.5323 82.2835 31.1423 85.4965C33.728 88.6951 37.2254 91 41.6084 91H41.6282C41.7002 90.9982 41.7524 90.9982 41.7884 90.9982L64.2038 91C72.1859 90.9982 78.656 84.5263 78.656 76.5451L78.8234 49.9357C78.8639 49.6369 78.8846 49.3426 78.8828 49.0537C78.881 45.9622 76.6067 43.2766 73.4657 42.8302ZM63.5423 39.6802H63.5477C63.7169 39.6802 63.8906 39.6919 64.0661 39.718C65.9066 39.9727 67.2386 41.5585 67.2386 43.3612C67.2386 43.5367 67.2251 43.7095 67.2035 43.8823L66.8291 46.5463L65.3495 57.07L65.1704 58.3543L64.8662 60.5161C64.8626 60.5431 64.8518 60.5674 64.8482 60.5926C64.5566 62.3908 62.996 63.6895 61.2221 63.6868C61.0484 63.6868 60.8738 63.6778 60.7037 63.6544C59.09 63.4285 57.8723 62.1856 57.5924 60.6673C57.5906 60.6556 57.587 60.6448 57.5834 60.6322C57.5465 60.4234 57.5285 60.2137 57.5285 59.9968C57.5285 59.8321 57.5393 59.6656 57.5636 59.4919L58.3673 53.7778L59.3816 46.5589L59.9036 42.8536C59.9531 42.4999 60.0584 42.1696 60.197 41.86C60.2114 41.8258 60.2204 41.7889 60.2375 41.7565C60.8405 40.5109 62.1293 39.6802 63.5423 39.6802ZM35.7989 62.4493C35.7854 62.4349 35.7683 62.4178 35.7503 62.3944C35.7026 62.3332 35.6414 62.2324 35.5811 62.0821C35.5712 62.0551 35.5613 62.0317 35.5496 62.002C35.5487 62.0002 35.5478 61.9948 35.5469 61.993C35.4569 61.7239 35.3786 61.3162 35.3696 60.6907C35.3696 60.6178 35.375 60.5323 35.3768 60.4549C35.3795 60.3604 35.3813 60.2668 35.3885 60.1642C35.3939 60.0787 35.4065 59.9851 35.4146 59.8942C35.4263 59.7727 35.4389 59.6521 35.456 59.5234C35.4695 59.4262 35.4875 59.3173 35.5046 59.2138C35.5271 59.0761 35.5523 58.9339 35.5811 58.7845C35.6036 58.6702 35.6288 58.5532 35.6549 58.4326C35.6693 58.3714 35.6864 58.3021 35.7008 58.2391L36.4928 62.6509L35.7989 62.4493ZM76.046 76.5451C76.037 83.0854 70.7423 88.3783 64.2038 88.3918H41.8064C41.7398 88.3918 41.675 88.3936 41.6282 88.3936C38.1848 88.3819 35.4812 86.6728 33.1655 83.8513C29.7131 79.6321 27.5018 72.9892 26.24 67.4353C25.6037 64.6561 25.1924 62.1514 24.9422 60.3424C24.791 59.2561 24.6992 58.4317 24.6488 57.9466C24.7325 57.8359 24.8072 57.7297 24.89 57.6199C25.061 57.3922 25.2302 57.1627 25.3922 56.9377C25.5065 56.7775 25.6154 56.6218 25.7252 56.4652C25.8818 56.2393 26.0393 56.0152 26.1878 55.7929C26.2877 55.6417 26.384 55.4923 26.4812 55.3429C26.6261 55.1206 26.771 54.8983 26.9069 54.6796C26.9951 54.5374 27.0779 54.3979 27.1625 54.2557C27.2948 54.0352 27.4289 53.8165 27.5531 53.5996C27.6296 53.4673 27.7016 53.3377 27.7745 53.2063C27.8969 52.9867 28.0184 52.7698 28.1318 52.5574C28.1966 52.4332 28.2569 52.3171 28.319 52.1974C28.4306 51.9841 28.5422 51.7672 28.6448 51.5593C28.7015 51.4486 28.7501 51.3406 28.8032 51.2317C28.904 51.0211 29.0057 50.8096 29.0984 50.6071C29.1434 50.5081 29.1839 50.4118 29.2289 50.3137C29.3198 50.1067 29.4116 49.9006 29.4944 49.7017C29.5313 49.6135 29.5637 49.5307 29.5988 49.4443C29.6807 49.2418 29.7635 49.0411 29.8373 48.8485C29.8661 48.7738 29.8913 48.7018 29.9183 48.628C29.9921 48.4318 30.065 48.2356 30.1298 48.0493C30.1505 47.9881 30.1694 47.9314 30.191 47.8711C30.2558 47.6803 30.3206 47.4913 30.3773 47.3113C30.3944 47.2591 30.407 47.2123 30.4232 47.161C30.4799 46.9801 30.5348 46.801 30.5834 46.6327C30.5951 46.5931 30.6032 46.558 30.6149 46.5193C30.6635 46.3483 30.7094 46.1791 30.7499 46.0216C30.7598 45.982 30.7688 45.9478 30.7769 45.9091C30.8147 45.7597 30.8516 45.6121 30.8822 45.4771C30.8966 45.4168 30.9065 45.3655 30.9191 45.3088C30.9416 45.2053 30.9659 45.0991 30.9848 45.0064C31.0145 44.8588 31.0397 44.7238 31.0622 44.6023C31.5338 44.4268 31.9424 44.3278 32.2988 44.2756C32.3087 44.2747 32.3195 44.2738 32.3294 44.272C32.5166 44.2459 32.6948 44.2288 32.8505 44.2288C33.1556 44.2288 33.404 44.272 33.6191 44.3404C33.9539 44.4511 34.223 44.6257 34.4669 44.875C34.5695 44.9794 34.6685 45.0937 34.7648 45.2269C35.0276 45.577 35.2292 46.0405 35.3903 46.5418C35.7881 47.7856 35.9096 49.2913 35.8907 50.086C35.8907 50.2192 35.8889 50.3299 35.8871 50.4172V50.4208C35.8178 50.5639 35.7602 50.6944 35.6945 50.833C35.5541 51.1309 35.4128 51.4306 35.2823 51.7141C35.0123 52.3117 34.7756 52.8715 34.5542 53.4142C33.2249 56.6866 32.765 58.9969 32.7605 60.697C32.7542 60.9994 32.7758 61.273 32.8028 61.5385C33.0026 63.5059 34.0313 64.4887 34.5425 64.774C34.6262 64.8199 34.6946 64.846 34.745 64.8586L34.7873 64.873L34.862 64.9L37.3496 65.6353L37.7825 65.764C37.8986 65.8 38.0174 65.8153 38.1362 65.8171C38.1425 65.8171 38.1497 65.8189 38.1551 65.8189C38.1785 65.8189 38.2001 65.8099 38.2235 65.8081C38.2694 65.8054 38.3153 65.8018 38.3594 65.7946C38.759 65.8036 40.6337 65.8846 42.7082 66.5317C45.0653 67.2688 47.5556 68.6728 48.7778 71.3341C48.9974 71.8129 49.4699 72.0955 49.964 72.0955C50.1458 72.0955 50.3303 72.0568 50.5076 71.974C51.1637 71.6716 51.4472 70.8985 51.1457 70.2442C49.4735 66.6334 46.2011 64.8865 43.484 64.0423C41.756 63.5059 40.2026 63.3079 39.2486 63.2323L38.453 58.7989L38.1065 56.8675L37.2965 53.6248C37.4144 53.3494 37.5251 53.083 37.6583 52.7905C37.8644 52.3387 38.0822 51.8707 38.3198 51.3838L38.3225 51.3766C38.3324 51.3577 38.3423 51.337 38.3522 51.3163C38.4278 51.1588 38.4692 51.0022 38.4818 50.8294C38.4827 50.8105 38.4926 50.653 38.4971 50.3866C38.4989 50.2984 38.4998 50.1976 38.4998 50.0869C38.4953 49.8349 38.4854 49.5181 38.4683 49.1752C38.4602 49.0186 38.4503 48.8629 38.4377 48.6919C38.4233 48.511 38.4071 48.3229 38.3846 48.1285C38.2325 46.7668 37.8572 45.1198 36.8951 43.7194C36.7214 43.4728 36.5135 43.2397 36.2894 43.0174C35.7899 42.5206 35.1743 42.103 34.4318 41.8636L28.9832 19.27C28.8896 18.9145 28.8473 18.5968 28.8473 18.28C28.8491 16.6546 29.9354 15.1588 31.5824 14.7205C31.901 14.6323 32.2196 14.5936 32.5355 14.5936C34.1627 14.5936 35.6585 15.6799 36.0977 17.3296L44.6594 48.7018L45.2453 50.8501C45.2822 50.9851 45.3434 51.1048 45.4163 51.2164C45.6989 51.6475 46.2164 51.8797 46.742 51.7825C46.7609 51.7861 46.778 51.7942 46.7969 51.7978C47.5097 51.9031 48.173 51.4126 48.281 50.7016L48.3971 49.9258L48.8561 46.8703L53.5262 15.7987C53.7827 13.942 55.3694 12.61 57.1748 12.61C57.344 12.61 57.5159 12.6226 57.6914 12.646C59.5337 12.9043 60.8648 14.4883 60.8648 16.2919C60.863 16.4665 60.8522 16.6411 60.8279 16.8121L54.9797 59.1274C54.9392 59.4172 54.9194 59.7097 54.9212 59.9986C54.9194 60.3622 54.9509 60.7267 55.013 61.0804C55.463 63.7039 57.5645 65.8468 60.3401 66.2383C60.6362 66.2788 60.9332 66.2986 61.2212 66.2986C63.8897 66.2986 66.2522 64.6003 67.1378 62.1172C68.0468 62.9578 69.2033 63.5473 70.5218 63.7336C70.8071 63.7768 71.0915 63.7939 71.366 63.7939H71.4047C73.2218 63.7939 74.8814 62.9974 76.0433 61.7149V76.5451H76.046ZM76.2377 49.5748L76.0181 51.1372L75.893 52.0273L75.2828 56.3635L75.0506 58.0159C75.0209 58.2445 74.9642 58.4677 74.8877 58.6927C74.3846 60.1705 72.9716 61.1911 71.4065 61.1875C71.231 61.1875 71.0573 61.1776 70.8863 61.1524C69.3203 60.9337 68.1341 59.7529 67.8119 58.2976C67.8029 58.2553 67.7876 58.2166 67.7804 58.1752C67.7768 58.1608 67.7714 58.15 67.7696 58.1365C67.7291 57.9205 67.7129 57.7054 67.7129 57.4894C67.7129 57.3283 67.7237 57.1636 67.748 56.989L68.5094 51.58L68.936 48.5452C68.9675 48.3112 69.026 48.0763 69.1052 47.854C69.1511 47.7172 69.2087 47.5831 69.2726 47.4508C69.2987 47.3986 69.3302 47.3536 69.3599 47.3041C69.9908 46.1395 71.2166 45.3727 72.5702 45.3727H72.5819C72.7511 45.3727 72.9248 45.3835 73.1003 45.4087H73.1021C74.9408 45.6661 76.2737 47.2501 76.2737 49.0519C76.2728 49.2283 76.2602 49.402 76.2377 49.5748Z" fill="#B28F00"/>
</g>
<defs>
<filter id="filter0_d_27_70" x="18.3" y="10" width="64.2829" height="88.7" filterUnits="userSpaceOnUse" color-interpolation-filters="sRGB">
<feFlood flood-opacity="0" result="BackgroundImageFix"/>
<feColorMatrix in="SourceAlpha" type="matrix" values="0 0 0 0 0 0 0 0 0 0 0 0 0 0 0 0 0 0 127 0" result="hardAlpha"/>
<feOffset dy="4"/>
<feGaussianBlur stdDeviation="1.85"/>
<feComposite in2="hardAlpha" operator="out"/>
<feColorMatrix type="matrix" values="0 0 0 0 0.353333 0 0 0 0 0.28012 0 0 0 0 0 0 0 0 0.25 0"/>
<feBlend mode="normal" in2="BackgroundImageFix" result="effect1_dropShadow_27_70"/>
<feBlend mode="normal" in="SourceGraphic" in2="effect1_dropShadow_27_70" result="shape"/>
</filter>
</defs>
</svg>
