<svg width="100" height="100" viewBox="0 0 100 100" fill="none" xmlns="http://www.w3.org/2000/svg">
    <path
        d="M43.7015 9.00124C43.1252 9.01277 42.5373 9.04735 41.9495 9.18567C37.9958 10.0848 35.2178 13.6004 35.0334 17.4849C33.9499 17.312 32.8318 17.3236 31.7137 17.5772C26.9762 18.6491 23.9101 23.4443 24.9821 28.1818L30.6993 52.9874V55.4772L28.1174 52.8952C24.6824 49.4602 19.0112 49.4602 15.5762 52.8952C12.1413 56.3301 12.1413 62.0013 15.5762 65.4363L35.5867 85.4468C39.0563 88.9048 43.8514 91.6251 49.511 91.6251H63.1587C74.5356 91.6251 83.8147 82.3461 83.8147 70.9691V50.3132L86.5811 36.3888C87.5148 31.6283 84.3334 26.9023 79.5728 25.9686C78.57 25.7727 77.5787 25.7381 76.622 25.8764L77.2675 22.5567C78.2011 17.7962 75.0198 13.0702 70.2592 12.1365C65.4987 11.2029 60.8649 14.3842 59.9312 19.1448L56.9804 33.1613L52.4619 15.9173C52.4504 15.8942 52.4734 15.8481 52.4619 15.8251H52.3697C51.3784 11.7561 47.7359 8.93208 43.7015 9.00124ZM43.2405 14.9952C44.8657 14.6263 46.3757 15.583 46.7446 17.2083V17.3005L54.1217 45.6102L54.675 47.8234H59.9312L60.4845 45.4258L65.6485 20.3436V20.2514C65.9713 18.6146 67.5158 17.6233 69.1526 17.946C70.7894 18.2688 71.7807 19.8133 71.458 21.4501L66.1096 48.3767L71.9191 49.4832L74.9621 34.1757H75.0543C75.3771 32.5389 76.8295 31.4554 78.4663 31.7781C80.1031 32.1009 81.0944 33.6455 80.7716 35.2823L78.0052 49.7599L77.913 50.0365V70.9691C77.913 79.1531 71.3427 85.7234 63.1587 85.7234H49.511C45.7533 85.7234 42.5258 83.8906 39.8285 81.2049L19.7259 61.2867C18.5501 60.1109 18.5501 58.2205 19.7259 57.0448C20.9016 55.8691 22.792 55.8691 23.9677 57.0448L31.5293 64.6986L36.6011 69.7704V52.6185L36.5088 52.3419L30.7916 26.8908C30.4227 25.2655 31.3794 23.6633 33.0047 23.2944C34.63 22.9256 36.14 23.9745 36.5088 25.5998L41.765 49.0222L47.5745 47.7312L42.3183 24.2166C42.3068 24.182 42.3299 24.1589 42.3183 24.1244L41.0273 18.4993C40.6585 16.874 41.6152 15.364 43.2405 14.9952Z"
        fill="#2BA1AA" />
</svg>